{"glyphs":{":":{"x_min":0,"x_max":299,"ha":299,"o":"m 80 335 l 119 519 l 273 519 l 234 335 z m 9 0 l 48 184 l 202 184 l 163 0 z"},"$":{"x_min":0,"x_max":630,"ha":630,"o":"m 524 478 q 521 481 510 488 q 499 496 482 506 q 465 515 442 524 q 420 534 394 539 l 375 450 l 413 437 q 448 425 478 410 q 507 395 528 374 q 550 354 562 326 q 574 299 574 262 q 574 191 549 142 q 524 92 484 60 q 444 28 394 12 q 343 -5 292 -8 l 267 -129 l 187 -129 l 213 -6 q 150 0 90 21 q 29 42 -16 74 l 104 244 q 106 242 119 232 q 132 222 154 210 q 176 198 204 186 q 233 175 265 170 l 283 256 l 224 277 q 157 301 125 339 q 93 377 93 434 q 93 495 116 544 q 139 594 178 630 q 216 666 265 687 q 314 708 366 714 l 388 815 l 467 815 l 445 713 q 475 709 504 701 q 532 693 557 682 q 582 672 604 660 q 625 649 642 639 z m 354 204 q 354 223 329 236 l 315 167 q 340 169 347 180 q 354 191 354 204 z m 307 501 q 307 482 328 470 l 344 541 q 328 538 318 528 q 307 518 307 501 z"},"?":{"x_min":0,"x_max":482,"ha":482,"o":"m 81 259 q 85 280 92 300 q 98 321 110 340 q 121 358 140 374 q 158 391 187 406 q 226 425 252 440 q 279 455 296 469 q 312 483 320 496 q 327 510 327 525 q 327 544 315 555 q 303 566 285 566 q 269 566 256 559 q 243 552 233 542 q 223 532 215 522 q 207 511 201 504 l 98 590 q 135 651 196 685 q 256 719 325 719 q 357 719 388 710 q 419 702 443 682 q 467 663 482 632 q 497 602 497 559 q 497 518 488 488 q 480 457 465 433 q 450 409 430 391 q 409 373 385 358 q 361 343 336 332 q 311 321 290 310 q 269 299 254 287 q 239 275 236 259 z m 29 0 l 64 164 l 219 164 l 184 0 z"},"<":{"x_min":0,"x_max":554,"ha":554,"o":"m 28 298 l 452 556 l 452 354 l 304 259 l 452 172 l 452 -40 l 28 210 z"},"'":{"x_min":0,"x_max":264,"ha":264,"o":"m 92 496 l 142 730 l 302 730 l 252 496 z"},"=":{"x_min":0,"x_max":492,"ha":492,"o":"m 78 101 l 78 221 l 401 221 l 401 101 z m 78 331 l 78 451 l 401 451 l 401 331 z"},"a":{"x_min":0,"x_max":646,"ha":646,"o":"m 193 -10 q 149 -10 114 6 q 80 21 56 49 q 32 77 20 116 q 7 155 7 202 q 7 270 30 330 q 53 391 92 437 q 131 483 182 510 q 234 536 291 536 q 339 536 374 513 q 408 490 420 448 l 436 522 l 627 522 l 560 210 q 557 195 557 186 q 557 161 584 160 l 550 0 q 500 -10 469 -10 q 424 -10 398 7 q 372 24 372 67 q 372 77 373 82 q 337 34 290 12 q 242 -10 193 -10 z m 279 150 q 303 150 324 164 q 345 177 370 204 l 390 298 q 385 333 366 354 q 346 376 319 376 q 298 376 278 364 q 258 352 242 332 q 226 313 216 287 q 207 261 207 233 q 207 195 226 172 q 244 150 279 150 z"},"L":{"x_min":0,"x_max":564,"ha":564,"o":"m 148 710 l 343 710 l 228 170 l 527 170 l 491 0 l -3 0 z"},"3":{"x_min":0,"x_max":561,"ha":561,"o":"m 158 -147 q 85 -147 32 -128 q -20 -108 -58 -67 l 67 71 q 90 48 118 38 q 146 27 184 27 q 243 27 266 48 q 289 68 289 107 q 289 136 264 150 q 239 163 184 163 l 154 163 l 182 295 l 216 295 q 264 295 296 317 q 328 339 328 375 q 328 415 282 415 q 251 415 219 398 q 187 380 158 345 l 68 486 q 89 506 120 522 q 150 539 186 551 q 221 563 260 570 q 299 576 338 576 q 434 576 488 536 q 543 495 543 428 q 543 394 530 362 q 516 331 494 305 q 471 279 442 261 q 412 243 381 237 q 428 228 454 188 q 481 149 481 94 q 481 39 458 -6 q 434 -50 392 -82 q 349 -113 290 -130 q 230 -147 158 -147 z"},";":{"x_min":0,"x_max":301,"ha":301,"o":"m 81 335 l 120 519 l 274 519 l 235 335 z m -5 -157 l 64 0 l 7 0 l 47 184 l 203 184 l 163 0 l 77 -157 z"},"J":{"x_min":0,"x_max":488,"ha":488,"o":"m 89 -11 q 4 -11 -48 33 l 26 192 q 28 190 36 185 q 44 180 58 175 q 71 170 88 166 q 106 162 126 162 q 154 162 172 172 q 191 182 204 204 q 218 227 228 262 q 239 298 250 349 l 327 710 l 522 710 l 445 349 q 428 268 405 202 q 382 135 343 88 q 304 41 243 15 q 182 -11 89 -11 z"},"V":{"x_min":0,"x_max":641,"ha":641,"o":"m 76 710 l 282 710 l 306 245 l 526 710 l 731 710 l 335 0 l 173 0 z"},"\"":{"x_min":0,"x_max":472,"ha":472,"o":"m 92 496 l 142 730 l 302 730 l 252 496 z m 300 496 l 350 730 l 510 730 l 460 496 z"},"7":{"x_min":0,"x_max":582,"ha":582,"o":"m 304 411 l 55 411 l 92 584 l 640 584 l 160 -126 l -55 -126 z"},"S":{"x_min":0,"x_max":596,"ha":596,"o":"m 245 -9 q 208 -9 170 -3 q 132 3 96 14 q 60 25 27 40 q -6 55 -33 74 l 87 244 q 94 239 112 226 q 130 213 156 200 q 183 187 216 177 q 249 167 285 167 q 319 167 328 178 q 337 190 337 204 q 337 217 326 226 q 315 236 297 244 q 279 252 256 260 q 232 267 207 277 q 141 303 108 340 q 76 377 76 434 q 76 501 103 554 q 130 606 174 642 q 218 678 274 697 q 329 716 386 716 q 423 716 458 708 q 492 701 522 690 q 553 678 579 664 q 605 651 625 639 l 507 478 q 506 479 492 490 q 477 500 454 512 q 431 524 402 534 q 373 543 343 543 q 321 543 306 533 q 290 523 290 501 q 290 478 319 466 q 348 454 396 437 q 432 423 462 408 q 491 393 512 373 q 534 353 546 326 q 557 299 557 262 q 557 186 528 134 q 500 83 455 51 q 410 19 354 5 q 299 -9 245 -9 z"},"}":{"x_min":0,"x_max":364,"ha":364,"o":"m 111 590 l 143 740 l 343 740 q 348 740 354 736 q 360 731 360 720 q 360 714 359 710 l 314 501 q 312 491 312 486 q 312 462 326 444 q 339 426 357 426 l 329 296 q 308 291 284 271 q 261 251 254 219 l 208 -1 q 204 -20 194 -26 q 184 -31 179 -31 l -21 -31 l 11 119 l 63 119 l 98 284 q 104 311 120 328 q 137 346 154 360 q 145 371 137 384 q 129 398 129 417 q 129 422 129 426 q 129 431 131 436 l 164 590 z"},"Z":{"x_min":0,"x_max":593,"ha":593,"o":"m -6 145 l 381 540 l 93 540 l 129 710 l 643 710 l 612 565 l 244 170 l 534 170 l 498 0 l -37 0 z"},"x":{"x_min":0,"x_max":535,"ha":535,"o":"m 157 263 l 48 526 l 240 526 l 278 397 l 283 376 l 296 397 l 393 526 l 583 526 l 361 263 l 476 0 l 283 0 l 239 129 l 235 149 l 222 129 l 124 0 l -69 0 z"},")":{"x_min":0,"x_max":335,"ha":335,"o":"m 329 430 q 329 361 308 296 q 286 230 250 168 q 215 106 170 48 q 126 -11 80 -66 l -44 1 q -3 58 32 110 q 68 162 94 212 q 121 263 136 315 q 151 367 151 425 q 151 469 146 514 q 140 560 132 600 q 124 639 116 669 q 108 699 103 714 l 260 772 q 289 687 309 598 q 329 509 329 430 z"},"&":{"x_min":0,"x_max":728,"ha":728,"o":"m 390 37 q 344 13 298 2 q 252 -10 210 -10 q 158 -10 120 6 q 83 22 59 48 q 35 74 24 108 q 12 141 12 176 q 12 213 24 242 q 35 272 56 296 q 76 321 103 342 q 130 362 161 381 q 140 417 130 446 q 120 475 120 507 q 120 554 140 593 q 159 632 192 660 q 225 688 268 704 q 310 719 355 719 q 388 719 418 710 q 449 701 474 682 q 500 664 518 634 q 535 605 543 565 l 409 515 q 401 552 383 567 q 365 582 345 582 q 328 582 312 572 q 297 561 297 539 q 297 529 301 520 q 305 512 313 502 q 321 491 333 476 q 345 461 361 438 l 467 284 q 481 312 492 345 q 502 378 507 416 l 694 416 l 679 287 l 618 287 q 603 253 584 224 q 566 195 546 169 l 663 0 l 415 0 z m 264 134 q 292 134 318 144 l 240 262 q 216 246 206 230 q 197 215 197 195 q 197 163 216 148 q 235 134 264 134 z"},"_":{"x_min":0,"x_max":423,"ha":423,"o":"m -55 -170 l -19 0 l 314 0 l 278 -170 z"},"v":{"x_min":0,"x_max":548,"ha":548,"o":"m 43 526 l 240 526 l 240 149 q 270 204 292 250 q 315 295 334 338 q 352 380 369 425 q 386 470 405 526 l 575 526 q 539 395 466 263 q 394 131 292 0 l 96 0 z"},"O":{"x_min":0,"x_max":738,"ha":738,"o":"m 303 -6 q 237 -6 186 19 q 134 44 99 85 q 64 126 46 180 q 28 234 28 292 q 28 373 63 449 q 98 525 158 584 q 217 643 296 678 q 374 714 460 714 q 526 714 577 689 q 628 664 662 622 q 697 581 715 528 q 733 474 733 416 q 733 336 698 260 q 663 184 604 125 q 545 66 467 30 q 389 -6 303 -6 z m 341 167 q 389 167 425 190 q 461 212 486 246 q 510 281 522 322 q 534 364 534 403 q 534 431 528 456 q 521 481 508 500 q 494 519 472 530 q 450 541 420 541 q 373 541 337 519 q 301 497 277 463 q 253 429 240 388 q 228 346 228 307 q 228 279 234 254 q 241 229 254 210 q 268 190 290 178 q 311 167 341 167 z"},"(":{"x_min":0,"x_max":336,"ha":336,"o":"m 26 266 q 26 331 46 393 q 65 455 98 516 q 132 578 178 641 q 223 704 276 772 l 408 714 q 354 642 315 580 q 276 518 252 464 q 227 410 216 363 q 204 316 204 275 q 204 212 218 142 q 232 71 252 1 l 99 -66 q 84 -31 71 10 q 58 50 48 93 q 38 136 32 180 q 26 224 26 266 z"},"C":{"x_min":0,"x_max":664,"ha":664,"o":"m 299 -6 q 234 -6 184 20 q 134 45 99 88 q 64 130 46 184 q 28 239 28 298 q 28 372 60 446 q 93 520 150 580 q 208 639 286 676 q 365 714 458 714 q 556 714 620 672 q 684 629 704 559 l 533 453 q 529 479 518 496 q 506 513 490 523 q 473 533 454 537 q 435 541 417 541 q 371 541 336 519 q 300 497 276 463 q 252 429 240 388 q 227 348 227 311 q 227 282 234 256 q 241 229 255 210 q 269 190 290 178 q 311 167 340 167 q 358 167 378 172 q 399 176 418 186 q 438 197 456 214 q 473 230 486 254 l 625 159 q 602 120 564 89 q 527 58 482 37 q 438 16 390 5 q 342 -6 299 -6 z"},"W":{"x_min":0,"x_max":1002,"ha":1002,"o":"m 69 710 l 280 710 l 315 223 l 386 371 l 350 710 l 528 710 l 538 491 l 641 710 l 820 710 l 637 371 l 648 223 l 888 710 l 1101 710 l 687 0 l 526 0 l 487 254 l 342 0 l 181 0 z"},"A":{"x_min":0,"x_max":636,"ha":636,"o":"m 320 710 l 499 710 l 578 0 l 380 0 l 373 139 l 203 139 l 138 0 l -61 0 z m 370 269 l 362 489 l 259 269 z"},"f":{"x_min":0,"x_max":394,"ha":394,"o":"m 86 322 l 25 322 l 56 465 l 117 465 l 129 522 q 139 571 161 612 q 183 652 214 680 q 245 709 282 724 q 320 740 362 740 q 425 740 497 710 l 435 566 q 421 572 403 576 q 385 580 371 580 q 330 580 320 529 l 306 465 l 414 465 l 383 322 l 276 322 l 162 -213 l -28 -213 z"},"Q":{"x_min":0,"x_max":737,"ha":737,"o":"m 466 31 q 428 14 386 4 q 345 -5 302 -5 q 236 -5 185 20 q 134 44 98 86 q 63 127 45 180 q 27 234 27 292 q 27 373 62 449 q 98 525 158 584 q 217 643 295 679 q 373 715 459 715 q 525 715 576 690 q 627 665 662 624 q 696 582 714 528 q 732 474 732 416 q 732 331 694 252 q 655 174 591 114 l 669 0 l 487 0 z m 341 168 q 349 168 356 168 q 363 169 370 170 l 282 300 l 463 300 l 492 258 q 512 291 522 329 q 533 367 533 403 q 533 431 526 456 q 520 481 506 500 q 493 519 471 530 q 449 542 419 542 q 372 542 336 520 q 300 498 276 464 q 252 429 240 388 q 227 346 227 307 q 227 280 234 254 q 240 229 254 210 q 267 191 289 180 q 311 168 341 168 z"},"w":{"x_min":0,"x_max":816,"ha":816,"o":"m 34 526 l 214 526 l 252 173 l 304 286 l 265 526 l 415 526 l 424 372 l 499 526 l 639 526 q 609 454 579 398 q 549 343 508 286 l 515 224 q 542 259 562 286 q 581 312 596 334 q 612 355 624 375 q 636 395 648 416 q 659 438 672 464 q 684 491 700 526 l 870 526 q 816 395 727 263 q 638 131 517 0 l 408 0 l 388 200 l 283 0 l 127 0 z"},"-":{"x_min":0,"x_max":398,"ha":398,"o":"m 26 191 l 62 361 l 361 361 l 325 191 z"},"E":{"x_min":0,"x_max":575,"ha":575,"o":"m 148 710 l 622 710 l 586 540 l 307 540 l 286 440 l 524 440 l 490 282 l 252 282 l 228 170 l 516 170 l 480 0 l -3 0 z"},"s":{"x_min":0,"x_max":485,"ha":485,"o":"m 191 -10 q 125 -10 66 12 q 8 35 -27 78 l 61 192 q 101 159 140 141 q 180 123 215 123 q 235 123 243 131 q 251 139 251 153 q 251 164 239 174 q 227 184 195 195 q 152 209 122 223 q 92 237 72 252 q 53 267 44 285 q 35 303 35 326 q 35 370 54 408 q 74 447 108 476 q 142 504 187 520 q 232 537 283 537 q 339 537 385 522 q 431 507 474 461 l 379 347 q 338 378 310 392 q 282 406 256 406 q 239 406 229 398 q 219 389 219 374 q 219 361 232 352 q 246 344 281 333 q 368 307 404 276 q 441 245 441 196 q 441 150 423 112 q 405 74 372 47 q 339 20 293 5 q 247 -10 191 -10 z"},">":{"x_min":0,"x_max":555,"ha":555,"o":"m 507 210 l 83 -40 l 83 172 l 231 259 l 83 354 l 83 556 l 507 298 z"},"l":{"x_min":0,"x_max":345,"ha":345,"o":"m 132 -10 q 69 -10 37 18 q 5 45 5 97 q 5 108 6 119 q 7 130 10 142 l 135 730 l 325 730 l 214 209 q 211 197 211 187 q 211 149 247 149 q 258 149 272 153 q 286 157 299 164 l 293 24 q 257 8 213 -1 q 169 -10 132 -10 z"},"8":{"x_min":0,"x_max":591,"ha":591,"o":"m 229 -10 q 185 -10 146 4 q 107 17 78 42 q 50 68 34 104 q 17 141 17 186 q 17 223 28 253 q 39 283 56 306 q 74 330 94 348 q 114 366 132 379 q 115 393 106 420 q 96 446 96 474 q 96 530 124 574 q 152 618 195 648 q 238 678 288 694 q 337 710 381 710 q 416 710 452 698 q 487 687 516 665 q 544 643 562 610 q 580 577 580 534 q 580 510 572 486 q 565 462 552 442 q 539 421 523 405 q 507 389 490 379 q 507 361 522 329 q 538 297 538 254 q 538 197 512 148 q 486 100 444 65 q 401 30 345 10 q 289 -10 229 -10 z m 265 163 q 299 163 322 188 q 345 213 345 248 q 345 301 295 301 q 260 301 238 277 q 215 253 215 218 q 215 195 228 179 q 242 163 265 163 z m 324 442 q 344 442 364 458 q 383 474 383 504 q 383 521 374 532 q 364 543 346 543 q 322 543 306 525 q 289 507 289 482 q 289 462 300 452 q 310 442 324 442 z"},"\\":{"x_min":0,"x_max":663,"ha":663,"o":"m 316 710 l 578 0 l 369 0 l 106 710 z"},"e":{"x_min":0,"x_max":566,"ha":566,"o":"m 233 -10 q 182 -10 140 6 q 98 22 68 51 q 39 80 23 121 q 7 162 7 213 q 7 280 34 339 q 61 398 108 442 q 155 486 218 511 q 282 536 354 536 q 450 536 504 496 q 557 455 557 383 q 557 294 476 249 q 394 204 234 204 l 205 204 q 205 161 220 144 q 234 126 269 126 q 333 126 367 180 l 516 132 q 494 100 462 74 q 431 48 394 29 q 356 10 315 0 q 274 -10 233 -10 z m 320 401 q 291 401 266 378 q 242 356 226 318 l 233 318 q 310 318 340 328 q 371 337 371 362 q 371 379 357 390 q 343 401 320 401 z"},"b":{"x_min":0,"x_max":627,"ha":627,"o":"m 305 -10 q 194 -10 166 82 l 149 0 l -16 0 l 139 730 l 329 730 l 269 448 q 297 489 342 512 q 386 536 436 536 q 476 536 508 520 q 539 505 560 477 q 582 449 593 410 q 604 371 604 325 q 604 255 580 194 q 555 133 514 88 q 472 42 418 16 q 364 -10 305 -10 z m 287 150 q 311 150 332 160 q 353 171 369 190 q 385 208 394 233 q 404 258 404 287 q 404 325 387 350 q 370 376 341 376 q 315 376 286 354 q 257 333 237 298 l 217 204 q 231 177 246 164 q 261 150 287 150 z"},"%":{"x_min":0,"x_max":825,"ha":825,"o":"m 227 404 q 195 404 169 414 q 143 424 124 442 q 106 460 96 484 q 86 508 86 536 q 86 573 104 606 q 121 640 150 666 q 178 691 216 706 q 253 720 294 720 q 325 720 351 710 q 377 700 396 682 q 415 664 425 640 q 435 616 435 588 q 435 550 418 517 q 400 484 372 458 q 343 433 305 418 q 267 404 227 404 z m 246 494 q 256 494 266 501 q 277 508 286 520 q 294 532 300 548 q 305 563 305 580 q 305 601 297 616 q 289 630 275 630 q 265 630 254 623 q 244 616 236 604 q 227 592 222 576 q 216 561 216 544 q 216 523 224 508 q 232 494 246 494 z m 554 -10 q 522 -10 496 0 q 470 10 452 28 q 433 46 423 70 q 413 94 413 122 q 413 159 430 192 q 448 226 476 252 q 505 277 542 292 q 580 306 621 306 q 652 306 678 296 q 704 286 723 268 q 742 250 752 226 q 762 202 762 174 q 762 136 744 103 q 727 70 698 44 q 670 19 632 4 q 594 -10 554 -10 z m 573 80 q 583 80 594 87 q 604 94 612 106 q 620 118 626 134 q 631 149 631 166 q 631 187 624 202 q 616 216 602 216 q 592 216 582 209 q 571 202 562 190 q 554 178 548 162 q 543 147 543 130 q 543 109 551 94 q 559 80 573 80 z m 68 65 l 405 384 l 713 721 l 780 646 l 457 337 l 135 -10 z"},"m":{"x_min":0,"x_max":903,"ha":903,"o":"m 96 526 l 267 526 l 250 448 q 285 491 338 514 q 390 536 447 536 q 480 536 502 528 q 524 521 538 508 q 551 496 558 480 q 564 463 566 445 q 601 488 652 512 q 704 536 760 536 q 796 536 818 526 q 841 516 854 500 q 868 484 873 463 q 878 442 878 420 q 878 411 876 393 q 875 375 869 346 l 795 0 l 605 0 l 668 296 q 671 312 671 325 q 671 348 662 359 q 652 370 639 370 q 629 370 616 364 q 604 358 592 348 q 579 338 568 324 q 556 311 547 295 l 485 0 l 295 0 l 358 296 q 361 312 361 325 q 361 348 352 359 q 342 370 328 370 q 318 370 306 364 q 293 358 280 348 q 268 338 256 324 q 245 310 237 295 l 174 0 l -16 0 z"},"#":{"x_min":0,"x_max":727,"ha":727,"o":"m 712 397 l 559 397 l 524 310 l 645 310 l 615 170 l 460 170 l 385 0 l 235 0 l 310 170 l 263 170 l 189 0 l 38 0 l 113 170 l 7 170 l 37 310 l 177 310 l 212 397 l 104 397 l 132 527 l 272 527 l 353 710 l 504 710 l 422 527 l 469 527 l 550 710 l 701 710 l 618 527 l 740 527 z m 374 310 l 409 397 l 362 397 l 327 310 z"},",":{"x_min":0,"x_max":256,"ha":256,"o":"m -26 -157 l 43 0 l -14 0 l 26 184 l 182 184 l 142 0 l 56 -157 z"},"n":{"x_min":0,"x_max":601,"ha":601,"o":"m 96 526 l 267 526 l 250 448 q 285 491 338 514 q 390 536 455 536 q 491 536 514 526 q 538 516 552 499 q 565 482 570 460 q 575 439 575 417 q 575 398 572 380 q 570 362 567 346 l 494 0 l 304 0 l 367 296 q 370 311 370 322 q 370 347 358 358 q 347 370 331 370 q 311 370 284 349 q 256 328 237 295 l 174 0 l -16 0 z"},"h":{"x_min":0,"x_max":601,"ha":601,"o":"m 139 730 l 329 730 l 269 448 q 304 491 351 514 q 398 536 451 536 q 488 536 512 526 q 537 517 551 500 q 565 484 570 463 q 576 442 576 420 q 576 401 574 382 q 571 363 567 346 l 494 0 l 304 0 l 367 296 q 370 311 370 323 q 370 348 358 359 q 347 370 329 370 q 321 370 310 364 q 298 359 285 350 q 272 340 260 326 q 247 312 237 295 l 174 0 l -16 0 z"},"z":{"x_min":0,"x_max":472,"ha":472,"o":"m -18 112 l 261 396 l 57 396 l 85 526 l 487 526 l 463 414 l 184 130 l 412 130 l 384 0 l -42 0 z"},"B":{"x_min":0,"x_max":667,"ha":667,"o":"m 148 710 l 545 710 q 575 710 598 698 q 620 685 635 665 q 650 645 658 618 q 665 592 665 564 q 665 534 656 504 q 647 475 630 448 q 612 421 586 399 q 561 377 528 364 q 572 350 596 314 q 621 279 621 225 q 621 165 597 122 q 573 80 533 53 q 493 26 440 13 q 387 0 330 0 l -3 0 z m 365 164 q 389 164 408 184 q 428 203 428 238 q 428 258 420 270 q 411 283 396 283 l 252 283 l 227 164 z m 402 435 q 412 435 422 438 q 433 442 442 450 q 450 458 456 472 q 461 485 461 506 q 461 526 452 535 q 444 544 431 544 l 308 544 l 284 435 z"},"K":{"x_min":0,"x_max":665,"ha":665,"o":"m 148 710 l 343 710 l 286 440 l 534 710 l 755 710 l 444 392 l 621 0 l 396 0 l 292 261 l 236 205 l 192 0 l -3 0 z"},"R":{"x_min":0,"x_max":653,"ha":653,"o":"m -3 0 l 148 710 l 460 710 q 503 710 537 692 q 571 675 594 646 q 617 618 630 581 q 642 544 642 505 q 642 470 632 436 q 622 401 604 369 q 585 337 559 310 q 533 282 501 261 l 586 0 l 366 0 l 297 218 l 238 218 l 192 0 z m 383 388 q 391 388 401 395 q 411 402 420 415 q 429 428 435 446 q 441 464 441 485 q 441 511 432 526 q 422 540 410 540 l 307 540 l 275 388 z"},"T":{"x_min":0,"x_max":600,"ha":600,"o":"m 254 540 l 63 540 l 99 710 l 675 710 l 639 540 l 449 540 l 334 0 l 139 0 z"},"P":{"x_min":0,"x_max":602,"ha":602,"o":"m 148 710 l 440 710 q 483 710 516 692 q 550 675 574 646 q 597 618 610 581 q 622 544 622 505 q 622 453 600 402 q 577 350 538 310 q 500 269 449 244 q 398 218 340 218 l 238 218 l 192 0 l -3 0 z m 363 388 q 372 388 382 394 q 393 400 402 412 q 410 425 416 444 q 422 463 422 489 q 422 518 412 529 q 401 540 390 540 l 307 540 l 275 388 z"},"|":{"x_min":0,"x_max":358,"ha":358,"o":"m 104 -130 l 104 775 l 264 775 l 264 -130 z"},"t":{"x_min":0,"x_max":415,"ha":415,"o":"m 172 -11 q 145 -11 122 -6 q 99 0 82 13 q 64 26 54 46 q 45 66 45 96 q 45 107 46 118 q 47 129 50 142 l 101 383 l 40 383 l 71 526 l 132 526 l 167 691 l 357 691 l 322 526 l 418 526 l 388 383 l 291 383 l 254 209 q 253 204 252 200 q 252 195 252 191 q 252 162 282 162 q 294 162 312 166 q 331 171 351 179 l 351 29 q 307 12 260 0 q 214 -11 172 -11 z"},"M":{"x_min":0,"x_max":820,"ha":820,"o":"m 148 710 l 361 710 l 426 376 l 634 710 l 846 710 l 695 0 l 500 0 l 579 374 l 421 111 l 318 111 l 272 374 l 192 0 l -3 0 z"},"g":{"x_min":0,"x_max":626,"ha":626,"o":"m 159 -223 q 80 -223 26 -197 q -29 -171 -65 -122 l 57 -18 q 78 -45 112 -64 q 146 -82 188 -82 q 212 -82 236 -75 q 259 -68 278 -52 q 298 -37 313 -12 q 328 13 335 48 l 342 82 q 313 40 268 20 q 224 0 176 0 q 136 0 104 16 q 73 31 52 58 q 30 85 19 122 q 8 160 8 204 q 8 273 32 334 q 56 394 97 439 q 138 484 192 510 q 247 536 307 536 q 360 536 396 514 q 431 491 445 448 l 462 526 l 627 526 l 525 48 q 512 -14 480 -64 q 447 -114 399 -149 q 351 -184 290 -204 q 229 -223 159 -223 z m 277 150 q 301 150 322 164 q 344 177 368 204 l 388 298 q 383 334 363 355 q 343 376 317 376 q 296 376 276 364 q 257 352 241 332 q 225 312 216 286 q 206 261 206 233 q 206 196 225 173 q 244 150 277 150 z"},"j":{"x_min":0,"x_max":290,"ha":290,"o":"m -66 -209 q -106 -209 -140 -195 q -175 -181 -199 -155 l -94 -26 q -82 -46 -56 -46 q -23 -46 -13 -3 l 99 526 l 290 526 l 181 12 q 170 -37 147 -78 q 124 -118 92 -148 q 59 -177 18 -193 q -22 -209 -66 -209 z m 143 730 l 333 730 l 299 570 l 109 570 z"},"i":{"x_min":0,"x_max":286,"ha":286,"o":"m 96 526 l 286 526 l 174 0 l -16 0 z m 139 730 l 329 730 l 295 570 l 105 570 z"},"y":{"x_min":0,"x_max":543,"ha":543,"o":"m -56 -93 q -28 -93 -8 -91 q 13 -89 29 -84 q 45 -78 58 -69 q 70 -60 82 -45 l 111 -11 l 42 526 l 235 526 l 247 161 l 281 217 q 317 277 346 356 q 376 435 393 526 l 575 526 q 561 478 546 436 q 531 393 508 346 q 485 299 452 241 q 418 183 369 103 l 289 -26 q 253 -84 218 -124 q 182 -163 144 -188 q 105 -212 62 -223 q 18 -234 -34 -234 z"},"@":{"x_min":0,"x_max":820,"ha":820,"o":"m 588 64 q 608 64 628 84 q 647 104 662 136 q 677 168 686 208 q 696 249 696 291 q 696 347 678 392 q 661 436 629 468 q 597 499 552 516 q 506 533 449 533 q 374 533 308 504 q 243 475 195 425 q 147 375 119 308 q 91 241 91 164 q 91 51 150 -12 q 209 -76 313 -76 q 349 -76 384 -67 q 420 -58 466 -38 l 473 -106 q 387 -146 299 -146 q 234 -146 182 -124 q 129 -103 92 -64 q 56 -25 36 30 q 16 86 16 155 q 16 248 52 330 q 87 412 148 472 q 209 533 292 568 q 374 603 467 603 q 536 603 592 584 q 648 564 688 526 q 727 489 749 434 q 771 380 771 311 q 771 249 754 190 q 737 132 708 86 q 678 40 638 12 q 597 -16 550 -16 q 514 -16 492 1 q 469 18 469 49 q 469 51 469 54 q 469 57 470 60 q 428 25 392 10 q 357 -6 319 -6 q 244 -6 200 44 q 157 95 157 178 q 157 236 178 288 q 199 341 234 381 q 270 421 316 444 q 362 468 412 468 q 458 468 488 448 q 519 428 526 394 l 536 450 l 619 450 l 560 135 q 558 127 557 118 q 556 109 556 102 q 556 85 564 74 q 573 64 588 64 z m 354 82 q 394 82 420 104 q 445 127 463 169 l 479 284 q 477 316 458 340 q 438 363 403 363 q 378 363 354 350 q 329 336 310 312 q 290 288 278 256 q 266 223 266 186 q 266 165 270 146 q 275 127 286 113 q 296 99 313 90 q 330 82 354 82 z"},".":{"x_min":0,"x_max":254,"ha":254,"o":"m -13 0 l 26 184 l 180 184 l 141 0 z"},"p":{"x_min":0,"x_max":626,"ha":626,"o":"m 95 526 l 260 526 l 243 447 q 278 490 322 513 q 365 536 422 536 q 464 536 498 520 q 531 504 554 476 q 578 448 590 409 q 603 370 603 324 q 603 256 580 196 q 557 135 518 90 q 479 44 428 17 q 378 -10 324 -10 q 270 -10 236 12 q 201 35 190 78 l 128 -213 l -62 -213 z m 292 150 q 313 150 333 162 q 353 174 369 194 q 385 213 394 239 q 404 265 404 293 q 404 331 386 354 q 367 376 332 376 q 309 376 288 362 q 266 349 242 322 l 222 231 q 227 196 246 173 q 266 150 292 150 z"},"X":{"x_min":0,"x_max":631,"ha":631,"o":"m 223 350 l 77 710 l 288 710 l 355 486 l 517 710 l 727 710 l 428 350 l 568 0 l 358 0 l 297 214 l 145 0 l -66 0 z"},"*":{"x_min":0,"x_max":356,"ha":356,"o":"m 107 499 l 170 577 l 106 598 l 146 675 l 210 639 l 221 721 l 316 721 l 292 639 l 371 675 l 378 598 l 305 577 l 336 499 l 258 454 l 229 537 l 166 454 z"},"Y":{"x_min":0,"x_max":627,"ha":627,"o":"m 198 237 l 72 710 l 283 710 l 330 403 l 511 710 l 723 710 l 391 235 l 341 0 l 147 0 z"},"c":{"x_min":0,"x_max":555,"ha":555,"o":"m 232 -10 q 175 -10 132 8 q 90 26 62 56 q 34 86 20 126 q 6 166 6 211 q 6 272 30 330 q 54 389 99 434 q 144 480 207 508 q 270 536 348 536 q 441 536 494 496 q 547 456 565 393 l 368 337 q 352 376 313 376 q 292 376 272 366 q 253 355 238 336 q 222 317 213 290 q 204 264 204 232 q 204 194 220 172 q 237 150 265 150 q 303 150 336 189 l 509 133 q 464 70 394 30 q 324 -10 232 -10 z"},"!":{"x_min":0,"x_max":330,"ha":330,"o":"m 70 300 l 158 717 l 348 717 l 260 300 z m 6 0 l 45 184 l 235 184 l 196 0 z"},"/":{"x_min":0,"x_max":771,"ha":771,"o":"m 825 710 l 181 0 l -28 0 l 616 710 z"},"[":{"x_min":0,"x_max":346,"ha":346,"o":"m -10 -40 l 156 740 l 398 740 l 366 590 l 299 590 l 197 110 l 264 110 l 233 -40 z"},"6":{"x_min":0,"x_max":593,"ha":593,"o":"m 234 -10 q 137 -10 88 54 q 39 119 39 234 q 39 336 66 424 q 93 512 142 577 q 190 642 258 679 q 326 716 408 716 q 530 716 603 620 l 472 498 q 432 552 370 552 q 326 552 295 522 q 264 493 250 439 q 293 473 353 473 q 397 473 433 458 q 469 444 494 418 q 520 393 534 358 q 547 323 547 282 q 547 223 522 170 q 496 117 452 77 q 409 37 352 14 q 296 -10 234 -10 z m 268 149 q 284 149 301 158 q 318 167 332 182 q 345 197 354 216 q 362 236 362 257 q 362 286 346 305 q 331 324 305 324 q 287 324 270 316 q 254 308 241 294 q 228 280 220 262 q 212 243 212 222 q 212 192 228 170 q 243 149 268 149 z"},"r":{"x_min":0,"x_max":408,"ha":408,"o":"m 96 526 l 270 526 l 248 426 q 286 479 332 508 q 377 536 422 536 q 433 536 437 536 q 441 536 444 535 l 408 364 q 357 364 312 352 q 267 340 240 312 l 174 0 l -16 0 z"},"2":{"x_min":0,"x_max":583,"ha":583,"o":"m -31 0 q -21 50 -5 88 q 11 126 34 156 q 58 187 90 211 q 123 235 167 257 q 227 287 262 305 q 296 323 314 335 q 331 347 336 356 q 340 366 340 379 q 340 417 297 417 q 268 417 238 400 q 207 383 167 345 l 77 486 q 101 507 134 524 q 167 542 204 554 q 242 567 283 574 q 324 581 365 581 q 461 581 509 543 q 557 505 557 437 q 557 399 548 370 q 538 342 521 318 q 504 295 480 276 q 456 256 426 237 q 400 221 374 204 q 347 188 316 170 l 513 170 l 477 0 l -31 0 z"},"{":{"x_min":0,"x_max":360,"ha":360,"o":"m 325 590 l 292 436 q 286 408 270 391 q 254 374 236 360 q 245 349 254 335 q 262 321 262 302 q 262 297 262 293 q 261 289 260 284 l 225 119 l 277 119 l 245 -31 l 45 -31 q 40 -31 34 -28 q 28 -24 28 -11 q 28 -5 29 -1 l 76 219 q 77 224 78 228 q 78 231 78 236 q 78 261 64 276 q 50 292 34 296 l 61 426 q 71 426 83 432 q 95 439 106 450 q 116 460 124 474 q 133 487 136 501 l 180 710 q 184 728 194 734 q 203 740 209 740 l 409 740 l 377 590 z"},"9":{"x_min":0,"x_max":574,"ha":574,"o":"m 167 -155 q 46 -155 -29 -59 l 102 63 q 142 9 205 9 q 248 9 280 38 q 311 68 325 122 q 281 88 222 88 q 178 88 142 102 q 106 117 80 142 q 55 168 42 203 q 28 238 28 279 q 28 338 54 391 q 79 444 122 484 q 165 524 222 548 q 278 571 340 571 q 437 571 486 506 q 535 442 535 327 q 535 225 508 137 q 481 49 432 -16 q 384 -81 316 -118 q 249 -155 167 -155 z m 269 237 q 287 237 304 245 q 320 253 333 267 q 346 281 354 300 q 362 318 362 339 q 362 369 346 390 q 331 412 306 412 q 290 412 273 403 q 256 394 242 379 q 229 364 220 344 q 212 325 212 304 q 212 275 228 256 q 243 237 269 237 z"}," ":{"x_min":0,"x_max":223,"ha":223,"o":""},"I":{"x_min":0,"x_max":317,"ha":317,"o":"m 148 710 l 343 710 l 192 0 l -3 0 z"},"H":{"x_min":0,"x_max":724,"ha":724,"o":"m 148 710 l 343 710 l 287 448 l 499 448 l 555 710 l 750 710 l 599 0 l 404 0 l 463 278 l 251 278 l 192 0 l -3 0 z"},"4":{"x_min":0,"x_max":570,"ha":570,"o":"m 195 -3 l -43 -3 l -7 167 l 377 571 l 507 571 l 421 167 l 505 167 l 469 -3 l 385 -3 l 359 -127 l 169 -127 z m 253 167 l 279 287 l 180 167 z"},"~":{"x_min":0,"x_max":587,"ha":587,"o":"m 32 216 q 32 228 40 254 q 48 281 68 308 q 87 334 118 354 q 150 374 198 374 q 228 374 252 366 q 277 358 299 348 q 321 339 342 331 q 363 323 387 323 q 409 323 423 330 q 437 338 444 347 q 451 356 454 364 q 456 372 456 374 l 556 374 q 556 366 548 340 q 539 315 520 287 q 500 259 468 238 q 435 216 386 216 q 357 216 333 224 q 309 231 286 240 q 264 249 242 256 q 221 264 197 264 q 174 264 161 257 q 148 250 142 241 q 136 232 134 224 q 133 217 133 216 l 32 216 z"},"D":{"x_min":0,"x_max":693,"ha":693,"o":"m 148 710 l 410 710 q 480 710 532 688 q 584 667 618 630 q 653 592 670 542 q 686 491 686 433 q 686 339 654 260 q 621 180 564 122 q 506 65 428 32 q 350 0 259 0 l -3 0 z m 295 170 q 337 170 372 189 q 407 208 432 240 q 457 273 471 316 q 485 358 485 405 q 485 466 456 503 q 428 540 374 540 l 307 540 l 228 170 z"},"^":{"x_min":0,"x_max":630,"ha":630,"o":"m 44 303 l 242 710 l 400 710 l 597 303 l 444 303 l 321 556 l 195 303 z"},"0":{"x_min":0,"x_max":595,"ha":595,"o":"m 231 -10 q 186 -10 150 8 q 113 25 88 56 q 62 88 48 131 q 34 174 34 226 q 34 303 61 370 q 88 438 134 488 q 179 539 238 568 q 297 597 361 597 q 406 597 442 580 q 479 562 504 530 q 530 499 544 456 q 558 412 558 360 q 558 283 530 216 q 503 148 458 98 q 412 48 353 19 q 294 -10 231 -10 z m 268 164 q 286 164 303 178 q 320 193 334 217 q 347 241 355 273 q 363 305 363 340 q 363 377 353 400 q 343 423 324 423 q 304 423 286 408 q 269 393 256 368 q 242 344 234 312 q 226 280 226 246 q 226 209 237 186 q 248 164 268 164 z"},"F":{"x_min":0,"x_max":546,"ha":546,"o":"m 148 710 l 612 710 l 576 540 l 307 540 l 282 422 l 500 422 l 467 264 l 248 264 l 192 0 l -3 0 z"},"`":{"x_min":0,"x_max":275,"ha":275,"o":"m 45 730 l 213 730 l 230 588 l 98 574 z"},"k":{"x_min":0,"x_max":582,"ha":582,"o":"m 139 730 l 327 730 l 256 398 q 332 531 447 531 q 502 531 532 499 q 562 467 562 407 q 562 340 528 284 q 494 227 432 189 l 509 0 l 309 0 l 235 215 q 307 228 350 257 q 392 286 392 324 q 392 344 380 356 q 368 369 349 369 q 332 369 314 359 q 297 349 280 332 q 264 315 249 292 q 234 269 223 243 l 172 0 l -16 0 z"},"u":{"x_min":0,"x_max":618,"ha":618,"o":"m 132 -10 q 72 -10 40 22 q 9 53 9 114 q 9 142 17 180 l 91 526 l 280 526 l 216 223 q 213 208 213 196 q 213 150 251 150 q 268 150 290 160 q 312 170 341 204 l 410 526 l 600 526 l 533 210 q 530 195 530 186 q 530 161 557 160 l 523 0 q 473 -10 441 -10 q 398 -10 370 6 q 343 23 343 63 q 343 68 344 72 q 344 77 345 82 q 300 33 248 12 q 195 -10 132 -10 z"},"]":{"x_min":0,"x_max":347,"ha":347,"o":"m -31 -40 l 1 110 l 69 110 l 171 590 l 103 590 l 135 740 l 377 740 l 212 -40 z"},"U":{"x_min":0,"x_max":713,"ha":713,"o":"m 291 -6 q 226 -6 180 12 q 133 31 104 64 q 75 97 62 142 q 48 186 48 238 q 48 289 60 345 l 138 710 l 333 710 l 255 345 q 247 305 247 274 q 247 227 266 197 q 284 167 328 167 q 358 167 382 182 q 406 197 425 222 q 444 246 456 278 q 469 310 477 345 l 555 710 l 750 710 l 672 345 q 656 271 624 206 q 592 142 544 95 q 496 48 432 21 q 369 -6 291 -6 z"},"o":{"x_min":0,"x_max":596,"ha":596,"o":"m 232 -10 q 175 -10 132 8 q 90 25 62 55 q 34 85 20 125 q 7 165 7 209 q 7 270 30 329 q 54 388 98 434 q 142 480 205 508 q 268 536 348 536 q 405 536 448 518 q 490 501 518 471 q 546 441 560 402 q 573 362 573 317 q 573 256 550 197 q 526 138 482 92 q 437 46 374 18 q 311 -10 232 -10 z m 266 150 q 288 150 308 161 q 328 172 343 191 q 358 210 366 236 q 375 263 375 294 q 375 332 359 354 q 343 376 314 376 q 292 376 272 365 q 252 354 237 335 q 222 316 214 290 q 205 263 205 232 q 205 194 221 172 q 237 150 266 150 z"},"N":{"x_min":0,"x_max":725,"ha":725,"o":"m 148 710 l 300 710 l 480 349 l 556 710 l 751 710 l 600 0 l 446 0 l 266 349 l 192 0 l -3 0 z"},"+":{"x_min":0,"x_max":440,"ha":440,"o":"m 400 430 l 400 280 l 315 280 l 315 185 l 145 185 l 145 280 l 60 280 l 60 430 l 145 430 l 145 525 l 315 525 l 315 430 z"},"G":{"x_min":0,"x_max":711,"ha":711,"o":"m 466 60 q 422 26 380 10 q 338 -5 290 -5 q 234 -5 186 14 q 138 34 103 71 q 68 108 48 161 q 28 214 28 282 q 28 373 64 452 q 101 531 162 590 q 223 648 301 682 q 379 715 463 715 q 508 715 548 704 q 588 694 620 674 q 652 653 674 624 q 696 596 707 560 l 539 449 q 528 491 495 516 q 462 542 419 542 q 381 542 347 524 q 313 505 286 474 q 260 442 244 399 q 229 356 229 307 q 229 244 259 206 q 289 168 344 168 q 422 168 498 238 l 382 238 l 411 378 l 695 378 l 614 0 l 454 0 z"},"q":{"x_min":0,"x_max":626,"ha":626,"o":"m 169 -10 q 131 -10 101 6 q 71 21 50 49 q 29 77 18 116 q 7 154 7 200 q 7 270 32 332 q 56 393 97 438 q 138 484 192 510 q 245 536 304 536 q 361 536 394 512 q 427 488 444 445 l 461 526 l 626 526 l 516 7 q 513 -5 513 -14 q 513 -42 551 -43 l 517 -203 q 491 -208 462 -210 q 432 -213 410 -213 q 362 -213 332 -188 q 301 -164 301 -121 q 301 -110 304 -96 l 341 78 q 312 35 268 12 q 223 -10 169 -10 z m 278 150 q 321 150 368 204 l 388 298 q 382 333 362 354 q 343 376 317 376 q 296 376 276 364 q 255 352 240 332 q 224 313 214 288 q 205 262 205 234 q 205 196 224 173 q 243 150 278 150 z"},"d":{"x_min":0,"x_max":645,"ha":645,"o":"m 193 -10 q 149 -10 114 6 q 80 21 56 49 q 32 77 20 116 q 7 155 7 202 q 7 270 30 330 q 53 391 92 437 q 131 483 182 510 q 234 536 291 536 q 339 536 374 513 q 408 490 420 448 l 480 730 l 671 730 l 560 210 q 557 195 557 186 q 557 161 584 160 l 550 0 q 500 -10 469 -10 q 426 -10 398 6 q 371 22 371 62 q 371 67 372 72 q 372 77 373 82 q 337 34 290 12 q 242 -10 193 -10 z m 279 150 q 303 150 324 164 q 345 177 370 204 l 390 298 q 385 333 366 354 q 346 376 319 376 q 298 376 278 364 q 258 352 242 332 q 226 313 216 287 q 207 261 207 233 q 207 195 226 172 q 244 150 279 150 z"},"1":{"x_min":0,"x_max":532,"ha":532,"o":"m 32 170 l 167 170 l 209 369 q 198 357 178 346 q 157 334 133 324 q 109 314 84 308 q 60 302 42 302 l 79 476 q 92 476 118 486 q 143 497 170 512 q 197 526 220 542 q 244 559 252 571 l 446 571 l 361 170 l 482 170 l 446 0 l -4 0 z"},"5":{"x_min":0,"x_max":540,"ha":540,"o":"m 152 -149 q 77 -149 24 -120 q -29 -91 -50 -37 l 79 83 q 99 52 128 34 q 158 17 188 17 q 227 17 250 43 q 274 69 274 110 q 274 134 262 149 q 251 164 229 164 q 211 164 194 154 q 178 145 167 129 l 5 129 q 50 240 92 350 q 133 460 179 571 l 518 571 l 481 398 l 279 398 l 255 321 q 262 324 272 325 q 281 326 292 326 q 334 326 368 312 q 401 299 425 275 q 449 251 462 217 q 474 183 474 142 q 474 79 449 26 q 424 -27 380 -66 q 337 -105 278 -127 q 220 -149 152 -149 z"}}}
